<svg xmlns="http://www.w3.org/2000/svg" viewBox="0 0 330 137"><defs><style>.cls-1{fill:#69bbf2;}.cls-2{fill:#21578e;}</style></defs><title>Asset 1</title><g id="Layer_2" data-name="Layer 2"><g id="Layer_1-2" data-name="Layer 1"><path d="M112.59,49.82H97.46V98.38L58.84,49.82H50.3v86h16V85c2.91,3.72,39.7,50.9,39.7,50.9h7.46V49.82Z"/><path d="M160,49.22h-7.17l-34.26,86.26h18.59s5.47-15.85,5.85-16.94h27.56c.38,1.06,6.14,16.94,6.14,16.94H195L160.55,49.22Zm-3.3,29.1,8.9,27.18H147.8C148.43,103.57,155.32,82.45,156.66,78.32Z"/><path d="M204,61.75c-7.32,8.41-11,19-11,31.5,0,13.41,3.35,24.15,10,31.94S219,137,230.91,137s21.14-3.3,27.37-9.83l.45-.47-7.9-13.62-.8,1c-4.27,5.41-10.28,8.13-17.86,8.13-6.69,0-11.88-2.46-15.88-7.54-2.89-3.68-6-13.48-6-20.79,0-8.72,2.19-16,6.52-21.68s9.74-8.44,16.49-8.44c7.09,0,12.27,1.62,15.41,4.8l.87.88,7-14L256,55c-5.9-4-13.85-6-23.63-6C220.86,49,211.32,53.29,204,61.75Z"/><path d="M266.81,50.5l-.85,0v85h19.52c29.53,0,44.52-15.4,44.52-45.79,0-11.93-3.7-21.66-11-28.9s-17.31-10.92-29.73-10.92C286.23,49.87,278.88,50.08,266.81,50.5Zm21.75,14.15c16.23,0,24.12,8.48,24.12,25.95,0,9.52-2.09,17-6.19,22.29s-9.77,7.82-17,7.82c-2.48,0-4.75-.12-6.9-.31V65Z"/><polygon class="cls-1" points="75.46 39.53 58.51 0 41.52 39.53 75.46 39.53"/><polygon class="cls-2" points="40.05 43.29 40.05 136 0 136 40.05 43.29"/></g></g></svg>